<?xml version="1.0" encoding="utf-8"?>
<!-- Generator: Adobe Illustrator 18.0.0, SVG Export Plug-In . SVG Version: 6.00 Build 0)  -->
<!DOCTYPE svg PUBLIC "-//W3C//DTD SVG 1.1//EN" "http://www.w3.org/Graphics/SVG/1.1/DTD/svg11.dtd">
<svg version="1.1" id="Layer_1" xmlns="http://www.w3.org/2000/svg" xmlns:xlink="http://www.w3.org/1999/xlink" x="0px" y="0px"
	 viewBox="0 0 24 24" enable-background="new 0 0 24 24" xml:space="preserve">
<path id="XMLID_805_" fill="none" stroke="#FF1446" stroke-width="1.5" stroke-linecap="round" stroke-miterlimit="10" d="M15.5,5.9
	c0,1.9-1.5,3.4-3.4,3.4S8.6,7.8,8.6,5.9s1.5-3.4,3.4-3.4S15.5,4,15.5,5.9z M19.4,18.9c0-5.2-5.4-9.3-10.9-6.6
	c-2.4,1.1-3.8,3.6-3.9,6.2c0,0.8,0,0.3,0,1h2.2v1.9c0,0.6,0.5,1.1,1.1,1.1h7.7c0.6,0,1.1-0.5,1.1-1.1v-1.9h2.7
	C19.4,19.1,19.4,19.1,19.4,18.9z M9.9,17.2h4.2 M12,15.1v4.2"/>
</svg>
