<?xml version="1.0" encoding="utf-8"?>
<!-- Generator: Adobe Illustrator 19.0.0, SVG Export Plug-In . SVG Version: 6.00 Build 0)  -->
<svg version="1.1" id="Layer_1" xmlns="http://www.w3.org/2000/svg" xmlns:xlink="http://www.w3.org/1999/xlink" x="0px" y="0px"
	 width="32px" height="32px" viewBox="-666 369 32 32" style="enable-background:new -666 369 32 32;" xml:space="preserve">
<style type="text/css">
	.st0{fill:#FF1446;}
</style>
<path id="XMLID_1_" class="st0" d="M-640,370.1h-20.5c-0.4,0-0.8,0.3-0.8,0.8v28c0,0.4,0.3,0.8,0.8,0.8h15.7c0.1,0,0.2,0,0.3-0.1
	c0,0,0.1,0,0.1-0.1c0,0,0.1,0,0.1-0.1l5.7-5.5l0,0c0.1-0.1,0.2-0.3,0.2-0.5v-21.5C-638.2,370.9-639,370.1-640,370.1z M-659.7,371.6
	h19.7c0.1,0,0.2,0.1,0.2,0.2v20.7h-5c-0.4,0-0.8,0.3-0.8,0.8v4.8h-14.1V371.6z M-644,394.1h3.1l-3.1,3V394.1z M-656.2,379.6h-0.9v-4
	h0.9v0.5c0.2-0.2,0.7-0.6,1.3-0.6c0.6,0,1,0.3,1.1,0.7c0.2-0.4,0.8-0.7,1.4-0.7c0.7,0,1.2,0.4,1.2,1.2v2.9h-0.9V377
	c0-0.4-0.2-0.7-0.7-0.7c-0.4,0-0.8,0.3-0.9,0.5v2.8h-0.9V377c0-0.4-0.2-0.7-0.7-0.7c-0.4,0-0.7,0.3-0.9,0.5
	C-656.2,376.8-656.2,379.6-656.2,379.6z M-649,377.1c-0.7,0-1.4,0.4-1.4,1.3s0.7,1.3,1.4,1.3c0.5,0,1-0.2,1.3-0.5v0.4h0.9v-2.7
	c0-1.1-0.8-1.5-1.7-1.5c-0.6,0-1.2,0.2-1.7,0.6l0.4,0.6c0.3-0.3,0.7-0.5,1.2-0.5c0.6,0,0.9,0.3,0.9,0.7v0.6
	C-648,377.2-648.5,377.1-649,377.1z M-647.7,378.7c-0.2,0.3-0.6,0.4-1,0.4c-0.5,0-0.9-0.3-0.9-0.7s0.4-0.7,0.9-0.7
	c0.4,0,0.8,0.1,1,0.4V378.7z M-644.2,379.6c0.5,0,1-0.3,1.3-0.7v0.5c0,0.8-0.6,1.1-1.2,1.1c-0.5,0-0.9-0.1-1.3-0.5l-0.4,0.6
	c0.5,0.4,1,0.6,1.7,0.6c1,0,2.1-0.4,2.1-1.8v-3.8h-0.9v0.6c-0.3-0.4-0.8-0.7-1.3-0.7c-1,0-1.8,0.8-1.8,2.1
	C-646,378.9-645.2,379.6-644.2,379.6z M-643.9,376.3c0.4,0,0.8,0.2,1,0.5v1.5c-0.2,0.3-0.6,0.5-1,0.5c-0.7,0-1.1-0.5-1.1-1.3
	S-644.6,376.3-643.9,376.3z M-657.8,385c0-0.4,0.3-0.8,0.8-0.8h15c0.4,0,0.8,0.3,0.8,0.8s-0.3,0.8-0.8,0.8h-15
	C-657.4,385.8-657.8,385.4-657.8,385z M-648.2,388.4c0,0.4-0.3,0.8-0.8,0.8h-8c-0.4,0-0.8-0.3-0.8-0.8s0.3-0.8,0.8-0.8h8
	C-648.6,387.6-648.2,388-648.2,388.4z"/>
</svg>
