<?xml version="1.0" encoding="utf-8"?>
<!-- Generator: Adobe Illustrator 19.0.0, SVG Export Plug-In . SVG Version: 6.00 Build 0)  -->
<svg version="1.1" id="Layer_1" xmlns="http://www.w3.org/2000/svg" xmlns:xlink="http://www.w3.org/1999/xlink" x="0px" y="0px"
	 width="32px" height="32px" viewBox="0 0 32 32" style="enable-background:new 0 0 32 32;" xml:space="preserve">
<style type="text/css">
	.st0{fill:#FF1446;}
</style>
<path id="XMLID_11_" class="st0" d="M23.3,31.8c-4.1,0-7.5-3.4-7.5-7.5s3.4-7.5,7.5-7.5s7.5,3.4,7.5,7.5S27.4,31.8,23.3,31.8z
	 M23.3,18.3c-3.3,0-6,2.7-6,6s2.7,6,6,6s6-2.7,6-6S26.6,18.3,23.3,18.3z M17,31.8H5c-1,0-1.8-0.8-1.8-1.8V11c0-0.9,0.7-1.6,1.6-1.7
	l1.9-0.9C6.8,8.3,6.9,8.3,7,8.3c0.1,0,0.2-0.1,0.2-0.2V5.8H5C4.6,5.8,4.2,5.5,4.2,5V2c0-1,0.8-1.8,1.8-1.8h14c1,0,1.8,0.8,1.8,1.8v3
	c0,0.4-0.3,0.8-0.8,0.8h-2.2V8c0,0.1,0.1,0.2,0.2,0.2c0.1,0,0.2,0,0.3,0.1l1.9,0.9c0.9,0.1,1.6,0.8,1.6,1.7v3.9
	c0,0.4-0.3,0.8-0.8,0.8s-0.8-0.3-0.8-0.8V11c0-0.1-0.1-0.2-0.2-0.2c-0.1,0-0.2,0-0.3-0.1l-1.9-0.9c-0.9-0.1-1.6-0.8-1.6-1.7V5.8H8.8
	V8c0,0.9-0.7,1.6-1.6,1.7l-1.9,0.9c-0.1,0.1-0.2,0.1-0.3,0.1c-0.1,0-0.2,0.1-0.2,0.2v2.8H13c1,0,1.8,0.8,1.8,1.8v9
	c0,1-0.8,1.8-1.8,1.8H4.8V30c0,0.1,0.1,0.2,0.2,0.2h12c0.4,0,0.8,0.3,0.8,0.8S17.4,31.8,17,31.8z M4.8,24.8H13
	c0.1,0,0.2-0.1,0.2-0.2v-9c0-0.1-0.1-0.2-0.2-0.2H4.8V24.8z M5.8,4.3h14.5V2c0-0.1-0.1-0.2-0.2-0.2H6C5.9,1.8,5.8,1.9,5.8,2V4.3z
	 M20.2,28.1c-0.2,0-0.4-0.1-0.5-0.2s-0.2-0.3-0.2-0.5c0-0.2,0.1-0.4,0.2-0.5l6.1-6.1c0.3-0.3,0.8-0.3,1.1,0c0.1,0.1,0.2,0.3,0.2,0.5
	c0,0.2-0.1,0.4-0.2,0.5l-6.1,6.1C20.6,28.1,20.4,28.1,20.2,28.1z"/>
</svg>
