<?xml version="1.0" encoding="utf-8"?>
<!-- Generator: Adobe Illustrator 19.0.0, SVG Export Plug-In . SVG Version: 6.00 Build 0)  -->
<svg version="1.1" id="Layer_1" xmlns="http://www.w3.org/2000/svg" xmlns:xlink="http://www.w3.org/1999/xlink" x="0px" y="0px"
	 width="32px" height="32px" viewBox="0 0 32 32" style="enable-background:new 0 0 32 32;" xml:space="preserve">
<style type="text/css">
	.st0{fill:#FF1446;}
</style>
<path id="XMLID_2_" class="st0" d="M10.7,27.2l-0.5-0.6c-0.4-0.4-9.4-10.1-9.4-15.4c0-5.5,4.5-9.9,9.9-9.9s9.9,4.5,9.9,9.9
	c0,5.3-9,15-9.4,15.4L10.7,27.2z M10.7,2.8c-4.6,0-8.4,3.8-8.4,8.4c0,3.7,5.6,10.7,8.4,13.8c2.8-3.1,8.4-10.2,8.4-13.8
	C19.1,6.5,15.3,2.8,10.7,2.8z"/>
<path id="XMLID_8_" class="st0" d="M22.7,27.1c-0.2,0-0.4-0.1-0.5-0.2c-0.1-0.1-2-2.2-4-4.8c-0.2-0.3-0.2-0.8,0.2-1
	c0.3-0.2,0.8-0.2,1,0.2c1.3,1.7,2.6,3.3,3.3,4.1c2.4-2.7,7.1-8.6,7.1-11.7c0-3.9-3.2-7.1-7.1-7.1c-0.4,0-0.8-0.3-0.8-0.8
	S22.3,5,22.7,5c4.8,0,8.6,3.9,8.6,8.6c0,4.6-7.7,12.9-8.1,13.3C23.1,27,22.9,27.1,22.7,27.1z"/>
<path id="XMLID_3_" class="st0" d="M10.6,15.2c-2.4,0-4.3-1.9-4.3-4.3c0-2.4,1.9-4.3,4.3-4.3c2.4,0,4.3,1.9,4.3,4.3
	C14.9,13.3,13,15.2,10.6,15.2z M10.6,8C9,8,7.8,9.3,7.8,10.9c0,1.6,1.3,2.8,2.8,2.8c1.6,0,2.8-1.3,2.8-2.8C13.4,9.3,12.2,8,10.6,8z"
	/>
<path id="XMLID_4_" class="st0" d="M22.7,18.4c-0.6,0-1.2-0.1-1.8-0.4c-0.4-0.2-0.5-0.6-0.4-1s0.6-0.5,1-0.4
	c0.4,0.2,0.8,0.2,1.2,0.2c1.6,0,2.8-1.3,2.8-2.8c0-1.6-1.4-2.9-3.1-2.8c-0.4,0-0.8-0.3-0.8-0.7c0-0.4,0.3-0.8,0.7-0.8
	c0.1,0,0.2,0,0.3,0c2.4,0,4.3,1.9,4.3,4.3S25.1,18.4,22.7,18.4z"/>
<path id="XMLID_5_" class="st0" d="M28.7,30.2h-25c-0.4,0-0.8-0.3-0.8-0.8s0.3-0.8,0.8-0.8h25c0.4,0,0.8,0.3,0.8,0.8
	S29.1,30.2,28.7,30.2z"/>
</svg>
