<svg width="7" height="10" viewBox="0 0 7 10" fill="none" xmlns="http://www.w3.org/2000/svg">
  <path d="M4.29736 0H6.20166V6.39844C6.20166 6.98665 6.07048 7.50716 5.80811 7.95996C5.54997 8.40853 5.18392 8.75553 4.70996 9.00098C4.236 9.24642 3.70068 9.36914 3.104 9.36914C2.12646 9.36914 1.36475 9.12158 0.818848 8.62646C0.272949 8.12712 0 7.42253 0 6.5127H1.91699C1.91699 6.96549 2.01221 7.2998 2.20264 7.51562C2.39307 7.73145 2.69352 7.83936 3.104 7.83936C3.46794 7.83936 3.75781 7.71452 3.97363 7.46484C4.18945 7.21517 4.29736 6.8597 4.29736 6.39844V0Z" fill="white"></path>
</svg>