<?xml version="1.0" encoding="utf-8"?>
<!-- Generator: Adobe Illustrator 16.0.0, SVG Export Plug-In . SVG Version: 6.00 Build 0)  -->
<!DOCTYPE svg PUBLIC "-//W3C//DTD SVG 1.1//EN" "http://www.w3.org/Graphics/SVG/1.1/DTD/svg11.dtd">
<svg version="1.1" id="Layer_1" xmlns="http://www.w3.org/2000/svg" xmlns:xlink="http://www.w3.org/1999/xlink" x="0px" y="0px"
	 width="356px" height="127.667px" viewBox="39.985 39.955 356 127.667" enable-background="new 39.985 39.955 356 127.667"
	 xml:space="preserve">
<g>
	<path fill="#42AAC8" d="M278.065,96.702c0,0-4.688-0.183-4.592,5.691c0.121,7.092,1.271,30.15-0.014,40.234
		c-1.285,10.085-3.42,18.279-1.713,18.972c2.127,0.86,7.619,1.646,10.912,0.646c3.295-0.998,4.631,0.574,3.693-14.727
		c-0.783-12.806,0.397-11.8,0.397-11.8s10.453,0.923,10.084,17.89c-0.172,8.084-1.996,8.299,5.691,8.512
		c9.983,0.275,9.211-1.383,9.088-7.412c-0.203-9.586-4.994-25.248-18.271-29.752c-1.377-0.467,2.138-1.436,5.99-4.893
		c6.586-5.91,9.01-12.682,9.184-17.272c0,0,1.3-3.394-2.596-3.594c-3.893-0.2-7.588-1.696-8.983,2.196
		c-1.4,3.894-4.392,12.581-7.888,15.275c-3.496,2.695-4.094,2.896-3.496,0.199c0.601-2.695,1.398-11.882,1.697-14.876
		C287.554,98.998,289.051,95.703,278.065,96.702z"/>
	<path fill="#FABC29" d="M55.393,97.378c-0.502-2.132-4.002-1.073-7.455-0.03c-6.889,2.082-4.826,3.041-4.797,6.965
		c0.035,4.856,2.496,41.328-1.197,52.324c0,0-2.775,8.817,13.777,3.426c3.299-1.076-0.322-33.293-0.322-33.293
		s5.588,8.076,12.094,22.373c3.291,7.233,4.855,10.387,5.523,11.885c0,0,1.121,4.063,5.215,3.637
		c5.318-0.557,6.885-1.209,6.504-4.779c-1.035-9.635-3.947-33.902-1.711-46.873c1.162-6.729,0.852-12.113-1.359-14.56
		c-1.541-1.704-4.076-1.452-5.84-1.449c-4.293,0.009-9.426-0.803-7.203,14.132c2.225,14.934,2.885,22.751,2.885,22.751
		s-9.824-11.419-11.939-19.37C57.451,106.563,55.393,97.378,55.393,97.378z"/>
	<path fill="#FFFFFF" d="M47.322,100.624l5.51-1.665c0,0,3.369,15.877,4.477,18.835c0.434,1.156-2.861-18.432-3.014-20.422
		C54.199,96.144,47.906,99.947,47.322,100.624z"/>
	<path fill="#FFFFFF" d="M77.881,147.64c0,0,3.201,11.625,1.73,12.36c-1.615,0.812-3.791,0.717-3.791,0.717
		c-1.09-0.526,6.369,3.478,6.418-1.509C82.279,154.613,77.881,147.64,77.881,147.64z"/>
	<path fill="#FFFFFF" d="M55.602,144.526c0,0,0.57,9.625-0.5,12.636c-0.541,1.522-4.189,2.796-6.912,2.497
		c-1.189-0.131-1.721-0.096-1.721-0.096s6.244-1.08,7.244-3.457c0.998-2.379,1.91-10.823,1.895-11.821"/>
	<path fill="#FABC29" d="M182.65,152.153l11.553-50.579c0,0,1.182-3.477-7.482-4.535c-8.662-1.059-7.646,1.875-8.488,7.942
		c-0.84,6.07-10.941,43.668-10.941,43.668c-0.234-4.004-9.303-47.936-9.303-47.936s-0.266-4.242-6.895-3.162
		c-6.629,1.08-6.775,0.793-6.307,5.328c0.465,4.535,8.809,53.128,8.809,53.128s1.146,5.792,11.723,6.566
		c0,0,5.924,0.63,11.291-1.595C180.156,159.51,181.248,156.733,182.65,152.153z"/>
	<path fill="#FFFFFF" d="M154.723,148.487c-0.535,3.641-0.52,6.524,2.668,9.416c3.186,2.893,13.467,1.693,13.467,1.693
		s-8.602-1.975-11.502-4.084C156.211,153.229,154.723,148.487,154.723,148.487z"/>
	<path fill="#FFFFFF" d="M300.75,100.137c0,0,5.482,0.356,6.119,3.702c0.637,3.344-3.56,9.254-3.803,9.65
		c-0.244,0.396,3.506-7.276,2.575-9.702C304.715,101.359,302.02,100.318,300.75,100.137z"/>
	<path fill="#FFFFFF" d="M306.594,148.324c0,0-2.018,11.134-5.844,11.713c-2.455,0.372-3.174-3.384-3.174-3.384
		c-0.255-1.236-0.99,7.531,5.336,4.349C307.193,158.847,306.594,148.324,306.594,148.324z"/>
	<path fill="#42AAC8" d="M322.951,113.751c0,0-1.099-8.662,5.477-8.761c11.314-0.169,10.347,0.204,9.681,13.243
		c0,0-1.548,15.146-0.365,34.117c0.438,7.035,0.656,10.463-7.801,10.313c-6.277-0.112-7.134-0.913-7.134-0.913
		s-1.95-0.772-1.276-10.767C322.299,139.656,322.756,117.748,322.951,113.751z"/>
	<path fill="#FFFFFF" d="M327.066,109.964c0,0,9.854-2.054,9.58,2.327c-0.271,4.38-3.011,27.239-3.148,28.745
		c-0.137,1.505,0.275-23.859,0.822-25.502s1.506-3.791-0.41-4.202C331.992,110.922,327.066,109.964,327.066,109.964z"/>
	<path fill="#42AAC8" d="M370.922,96.498c-7.236-1.086-19.635,0-19.635,0s0.754,24.166,0,36.501s-0.129,27.889,2.924,28.234
		c6.023,0.685,38.258,5.467,39.748-28.293C394.947,110.539,380.992,98.008,370.922,96.498z M364.125,149.334l-0.504-41.731
		c0,0,19.543,1.59,19.51,22.182C383.105,145.575,364.125,149.334,364.125,149.334z"/>
	<path fill="#FFFFFF" d="M362.389,98.119c0,0-9.045-2.822-9.188,1.306c-0.144,4.129,0.336,25.792,0.326,27.215
		c-0.009,1.422,1.338-19.834,0.975-21.424c-0.363-1.588-0.479-6.228,1.352-6.438C357.686,98.567,362.389,98.119,362.389,98.119z"/>
	<path fill="#FFFFFF" d="M382.988,154.358c1.942-1.832,6.393-8.194,6.272-7.748c-3.465,12.99-20.151,13.623-20.151,13.623
		S378.893,158.222,382.988,154.358z"/>
	<g>
		<path fill="#FABC29" d="M236.002,96.445l-11.215,14.412c-0.771,0.998-1.994,1.558-3.269,1.479l-18.227-1.063
			c-3.191-0.184-5.215,3.365-3.426,6.015l10.248,15.116c0.711,1.053,0.861,2.387,0.398,3.572l-6.646,17.004
			c-1.166,2.979,1.584,5.996,4.658,5.109l17.54-5.061c1.219-0.356,2.545-0.088,3.521,0.715l14.123,11.578
			c2.478,2.031,6.192,0.342,6.308-2.854l0.592-18.255c0.047-1.269,0.709-2.435,1.781-3.123l15.372-9.85
			c2.699-1.73,2.238-5.788-0.776-6.878l-17.164-6.209c-1.201-0.432-2.096-1.428-2.416-2.652l-4.621-17.662
			C241.972,94.742,237.959,93.916,236.002,96.445z"/>
		<path fill="#FFFFFF" d="M232.385,124.519l-1.782,2.284c-0.123,0.161-0.314,0.246-0.527,0.232l-2.879-0.166
			c-0.514-0.027-0.824,0.53-0.533,0.95l1.625,2.398c0.111,0.162,0.129,0.372,0.049,0.564l-1.059,2.689
			c-0.18,0.469,0.258,0.949,0.746,0.807l2.774-0.801c0.193-0.058,0.404-0.013,0.56,0.109l2.238,1.84
			c0.379,0.319,0.983,0.049,1.002-0.455l0.094-2.894c0-0.201,0.113-0.377,0.276-0.484l2.443-1.561
			c0.416-0.275,0.353-0.92-0.127-1.093l-2.72-0.989c-0.188-0.058-0.323-0.218-0.387-0.42l-0.727-2.791
			C233.328,124.252,232.685,124.128,232.385,124.519z"/>
		<path fill="#FABC29" d="M219.422,100.686C155.754,56.463,85.1,78.191,85.1,78.191s11.709-16.34,37.818-15.391
			c0,0-18.719-5.712-31.76-1.602c0,0,5.951-8.291,32.318-10.504c0,0-5.814-3.977-23.262-3.209
			C100.215,47.486,183.639,17.246,219.422,100.686z"/>
		<path fill="#FFFFFF" d="M145.383,57.363c34.852,5.646,61.826,29.259,61.826,29.259S192.734,68.498,176,63.107
			C159.682,57.854,145.383,57.363,145.383,57.363z"/>
		<path fill="#FFFFFF" d="M162.418,55.952c17.721,2.867,31.436,14.875,31.436,14.875s-7.361-9.216-15.867-11.956
			C169.686,56.202,162.418,55.952,162.418,55.952z"/>
	</g>
	<path fill="#FFFFFF" d="M187.674,101.662l-4.492-0.729c0,0-3.51,12.229-4.916,15.634c-0.549,1.332,3.02-15.227,3.273-17.542
		C181.695,97.598,187.021,100.85,187.674,101.662z"/>
	<path fill="#42BCD5" d="M330.225,89.985c0,0-5.455-0.324-5.641,3.146c-0.225,4.158-0.902,8.186,4.406,8.186
		c5.305,0,8.772,0.693,8.772-1.666c0-2.357,1.105-9.112-3.188-9.43C331.273,89.978,330.225,89.985,330.225,89.985z"/>
	<path fill="#FFFFFF" d="M336.514,97.741c0,0,0.238-2.225-0.332-4.769c-0.448-2.006-8.19-1.17-8.19-1.17s7.184,0.537,7.541,1.574
		C335.881,94.421,336.682,96.578,336.514,97.741z"/>
	<path fill="#FABC29" d="M137.57,111.676c-5.26-22.34-23.613-15.566-23.613-15.566c-10.051,2.697-23.51,9.946-22.311,30.065
		c2.129,35.807,12.396,35.403,18.85,35.536C129.412,162.101,142.832,134.017,137.57,111.676z M125.807,123.747
		c-0.002,16.938-9.775,21-11.811,21.102c-2.036,0.103-8.045,0.892-10.479-16.351s9.863-20.558,9.863-20.558
		S125.811,106.812,125.807,123.747z"/>
	<path fill="#FFFFFF" d="M112.783,147.036c-3.521,0.564-7.043,1.922-9.885-1.135c-2.846-3.057-1.811-13.043-1.811-13.043
		s2.023,8.32,4.102,11.107C107.443,146.985,112.783,147.036,112.783,147.036z"/>
	<path fill="#FFFFFF" d="M134.035,118.733c0.258-2.586,0.762-8.229-3.139-12.967c-3.865-4.696-9.781-4.084-9.781-4.084
		s4.572,1.195,8.273,6.372C132.938,113.021,134.035,118.733,134.035,118.733z"/>
</g>
</svg>
