<svg width="14" height="12" viewBox="0 0 14 12" fill="none" xmlns="http://www.w3.org/2000/svg">
<path fill-rule="evenodd" clip-rule="evenodd" d="M5.26926 2.57144C5.03563 2.57144 4.84619 2.37955 4.84619 2.14288V1.71434H1.62577C1.42568 1.71434 1.26263 1.87941 1.26263 2.0822V3.42858H12.6539V2.0822C12.6539 1.87941 12.4909 1.71434 12.2907 1.71434H9.07699V2.14288C9.07699 2.37955 8.88755 2.57144 8.65383 2.57144C8.4202 2.57144 8.23077 2.37955 8.23077 2.14288V1.71434H5.69232V2.14288C5.69232 2.37955 5.50289 2.57144 5.26926 2.57144ZM8.23077 0.857133H5.69232V0.428558C5.69232 0.191895 5.50289 0 5.26926 0C5.03563 0 4.84619 0.191895 4.84619 0.428558V0.857133H1.62577C0.958959 0.857133 0.416504 1.40672 0.416504 2.0822V10.3923C0.416504 11.2787 1.1286 12 2.00365 12H11.913C12.788 12 13.5001 11.2787 13.5001 10.3923V2.0822C13.5001 1.40672 12.9576 0.857133 12.2907 0.857133H9.07699V0.428558C9.07699 0.191895 8.88755 0 8.65383 0C8.4202 0 8.23077 0.191895 8.23077 0.428558V0.857133ZM1.26263 4.28569H12.6539V10.3923C12.6539 10.8062 12.3216 11.1429 11.9129 11.1429H2.00365C1.59505 11.1429 1.26263 10.8062 1.26263 10.3923V4.28569Z" fill="#DCDCDC"/>
</svg>
