<svg width="14" height="12" viewBox="0 0 14 12" fill="none" xmlns="http://www.w3.org/2000/svg">
<path fill-rule="evenodd" clip-rule="evenodd" d="M4.85275 2.57144C4.61912 2.57144 4.42969 2.37955 4.42969 2.14288V1.71439H1.20927C1.00917 1.71439 0.846128 1.87946 0.846128 2.08225V3.42862H12.2374V2.08225C12.2374 1.87946 12.0744 1.71439 11.8742 1.71439H8.66067V2.14288C8.66067 2.37955 8.47124 2.57144 8.23752 2.57144C8.00389 2.57144 7.81445 2.37955 7.81445 2.14288V1.71439H5.27582V2.14288C5.27582 2.37955 5.08638 2.57144 4.85275 2.57144ZM7.81445 0.857178H5.27582V0.428558C5.27582 0.191895 5.08638 0 4.85275 0C4.61912 0 4.42969 0.191895 4.42969 0.428558V0.857178H1.20927C0.542455 0.857178 0 1.40677 0 2.08225V10.3923C0 11.2787 0.712096 12.0001 1.58715 12.0001H11.4965C12.3715 12.0001 13.0836 11.2787 13.0836 10.3923V2.08225C13.0836 1.40677 12.5411 0.857178 11.8742 0.857178H8.66067V0.428558C8.66067 0.191895 8.47124 0 8.23752 0C8.00389 0 7.81445 0.191895 7.81445 0.428558V0.857178ZM0.846128 4.28574H12.2374V10.3923C12.2374 10.8062 11.9051 11.1429 11.4964 11.1429H1.58715C1.17854 11.1429 0.846128 10.8062 0.846128 10.3923V4.28574Z" fill="#363636"/>
</svg>
