<svg width="12" height="12" viewBox="0 0 12 12" fill="none" xmlns="http://www.w3.org/2000/svg">
<path fill-rule="evenodd" clip-rule="evenodd" d="M11 6C11 8.76142 8.76142 11 6 11C3.23858 11 1 8.76142 1 6C1 3.23858 3.23858 1 6 1C8.76142 1 11 3.23858 11 6ZM12 6C12 9.31371 9.31371 12 6 12C2.68629 12 0 9.31371 0 6C0 2.68629 2.68629 0 6 0C9.31371 0 12 2.68629 12 6ZM6.50008 3.5C6.50008 3.22386 6.27622 3 6.00008 3C5.72393 3 5.50008 3.22386 5.50008 3.5V5.86151L4.07133 8.24275C3.92926 8.47954 4.00604 8.78667 4.24283 8.92875C4.47962 9.07082 4.78675 8.99404 4.92882 8.75725L6.42882 6.25725C6.47545 6.17954 6.50008 6.09062 6.50008 6V3.5Z" fill="#DCDCDC"/>
</svg>
