<svg width="25" height="25" viewBox="0 0 25 25" fill="none" xmlns="http://www.w3.org/2000/svg">
<path opacity="0.7" d="M24.9501 15.7981C24.8155 15.3417 24.4312 15.0162 23.9711 14.9688L19.9027 14.55C19.9078 14.5459 19.9133 14.5423 19.9185 14.5379L24.4769 10.6521C24.926 10.2692 25.1066 9.65025 24.9369 9.07522C24.7672 8.50019 24.283 8.09005 23.7032 8.0304L16.0569 7.24333L13.8525 0.978063C13.6435 0.38394 13.1126 0 12.5 0C12.5 0 12.5 0 12.4999 0C11.8874 0 11.3564 0.38389 11.1474 0.978013L8.94308 7.24328L1.29652 8.0304C0.716816 8.0901 0.232626 8.50019 0.0628953 9.07517C-0.106835 9.6502 0.0737354 10.2692 0.522769 10.652L5.81596 15.1652L4.26402 22.4299C4.13423 23.0376 4.37632 23.6505 4.88088 23.9914C5.12302 24.155 5.39666 24.2365 5.66976 24.2365C5.96567 24.2365 6.26094 24.1408 6.51475 23.9507L12.8418 19.2097L13.2312 19.5417L12.372 23.5632C12.269 24.0455 12.4612 24.5319 12.8616 24.8024C13.2619 25.073 13.771 25.0602 14.1582 24.77L17.4464 22.3062L20.7345 24.7728C20.936 24.924 21.1706 25.0001 21.4056 25C21.6222 25 21.8392 24.9355 22.0313 24.8058C22.4319 24.5354 22.6242 24.049 22.5213 23.5666L21.662 19.5412L24.5849 17.0495C24.9414 16.7457 25.0848 16.2545 24.9501 15.7981ZM17.8774 20.7608C17.7489 20.6645 17.5978 20.6164 17.4466 20.6164C17.2956 20.6164 17.1445 20.6645 17.0163 20.7606L13.9857 23.0314L14.7581 19.416C14.8172 19.1392 14.7212 18.8514 14.5094 18.6708L11.8382 16.3934L15.7656 15.9891C16.0458 15.9603 16.2853 15.7682 16.3813 15.495L17.4466 12.4671L18.5119 15.495C18.608 15.7682 18.8474 15.9602 19.1276 15.9891L23.0548 16.3934L20.384 18.6701C20.1722 18.8507 20.0761 19.1384 20.1352 19.4153L20.9076 23.0341L17.8774 20.7608ZM5.70936 22.6861L7.34285 15.0394C7.40198 14.7625 7.30598 14.4748 7.09416 14.2943L1.50409 9.52788L9.5471 8.69999C9.82733 8.67113 10.0668 8.47903 10.1628 8.20587L12.5 1.56332L14.8371 8.20587C14.9332 8.47903 15.1726 8.67113 15.4528 8.69999L23.4956 9.52798L19.2456 13.151L18.52 11.0887C18.3542 10.6172 17.9328 10.3125 17.4467 10.3125H17.4466C16.9605 10.3125 16.5392 10.6171 16.3732 11.0887L15.1616 14.5325L10.9221 14.9689C10.4621 15.0162 10.0778 15.3417 9.94305 15.798C9.80838 16.2544 9.95165 16.7456 10.308 17.0494L11.6758 18.2156L5.70936 22.6861Z" fill="white"/>
</svg>
