<svg width="24" height="24" viewBox="0 0 24 24" fill="none" xmlns="http://www.w3.org/2000/svg">
<g opacity="0.7">
<path d="M20.4844 9.18759H17.6719C17.2836 9.18759 16.9688 9.5024 16.9688 9.89071C16.9688 10.279 17.2836 10.5845 17.6719 10.5845H20.4844C20.8727 10.5845 21.1875 10.279 21.1875 9.89071C21.1875 9.5024 20.8727 9.18759 20.4844 9.18759Z" fill="white"/>
<path d="M20.4844 12.0001H17.6719C17.2836 12.0001 16.9688 12.3149 16.9688 12.7032C16.9688 13.0915 17.2836 13.397 17.6719 13.397H20.4844C20.8727 13.397 21.1875 13.0915 21.1875 12.7032C21.1875 12.3149 20.8727 12.0001 20.4844 12.0001Z" fill="white"/>
<path d="M21.1875 7.85208V2.85928C21.1875 1.69617 20.2412 0.749908 19.0781 0.749908C18.0289 0.749908 17.1565 1.51997 16.9956 2.5245L13.781 4.84603C13.7785 4.84782 13.7761 4.84964 13.7737 4.85142C12.4498 5.83397 10.8128 6.3751 9.16411 6.3751H3.51562C1.57711 6.3751 0 7.95221 0 9.89072V12.7032C0 14.6417 1.57711 16.2188 3.51562 16.2188L4.21875 16.2095V21.1407C4.21875 22.3038 5.16502 23.2501 6.32812 23.2501C7.49123 23.2501 8.4375 22.3038 8.4375 21.1407V19.0313H9.14062C10.3037 19.0313 11.25 18.0851 11.25 16.922V16.515C12.1597 16.7735 13.0223 17.1965 13.7812 17.7658C13.7837 17.7676 13.7862 17.7694 13.7887 17.7713L17.0042 20.1178C17.1851 21.0984 18.0458 21.8438 19.0781 21.8438C20.2412 21.8438 21.1875 20.8975 21.1875 19.7344V14.7419C22.7902 14.4152 24 12.9948 24 11.297C24 9.59916 22.7902 8.17871 21.1875 7.85208ZM7.03125 21.1407C7.03125 21.5284 6.71583 21.8438 6.32812 21.8438C5.94042 21.8438 5.625 21.5284 5.625 21.1407V16.2095H7.03125V21.1407ZM3.51562 14.8126C2.35252 14.8126 1.40625 13.8663 1.40625 12.7032V9.89072C1.40625 8.72761 2.35252 7.77197 3.51562 7.77197H8.4375V14.8126H3.51562ZM9.84375 16.922C9.84375 17.3097 9.52833 17.6251 9.14062 17.6251H8.4375V16.2095C9.18108 16.2095 9.40744 16.2114 9.84375 16.2519V16.922ZM16.9781 18.351L14.6212 16.6379C13.2396 15.6028 11.5649 14.9755 9.84375 14.8405V7.75514C11.5566 7.62506 13.2263 7.00777 14.6079 5.98346L16.9781 4.27852V18.351ZM19.7906 19.7344C19.7906 20.1221 19.4658 20.4375 19.0781 20.4375C18.6904 20.4375 18.375 20.1221 18.375 19.7344V2.85928C18.375 2.47158 18.6904 2.15616 19.0781 2.15616C19.4658 2.15616 19.7906 2.47158 19.7906 2.85928V19.7344ZM21.1875 13.2854V9.30853C22.0058 9.59878 22.5938 10.3803 22.5938 11.297C22.5938 12.2136 22.0058 12.9952 21.1875 13.2854Z" fill="white"/>
</g>
</svg>
