<svg width="24" height="24" viewBox="0 0 24 24" fill="none" xmlns="http://www.w3.org/2000/svg">
<g opacity="0.7">
<path d="M13.4498 11.4716C13.5532 11.669 13.7506 11.7912 13.9715 11.7912C14.0608 11.7912 14.1547 11.7677 14.2393 11.7254C14.2581 11.716 16.5562 10.5456 17.6887 10.1884C17.8344 10.1414 17.9566 10.0427 18.0318 9.90167C18.1023 9.76536 18.1211 9.60555 18.0741 9.45514C18.0271 9.30943 17.9284 9.18722 17.7874 9.11671C17.6464 9.04621 17.4913 9.02741 17.3457 9.07441C16.152 9.45044 13.9574 10.5644 13.713 10.6866C13.572 10.7524 13.4686 10.8699 13.4216 11.0157C13.3652 11.1708 13.3793 11.3306 13.4498 11.4716Z" fill="white"/>
<path d="M13.9715 7.06266C14.0608 7.06266 14.1548 7.03916 14.2394 6.99685C14.2582 6.98745 16.5703 5.81706 17.6887 5.45984C17.8344 5.41283 17.9566 5.31413 18.0318 5.17782C18.1023 5.04151 18.1211 4.88169 18.0741 4.73128C18.0271 4.58557 17.9284 4.46336 17.7874 4.39286C17.6464 4.32235 17.4914 4.30355 17.3457 4.35055C16.152 4.72658 13.9574 5.84057 13.713 5.96278C13.5767 6.03328 13.4733 6.15549 13.4264 6.3012C13.3794 6.45161 13.3935 6.60672 13.4592 6.74303C13.5485 6.94045 13.7459 7.06266 13.9715 7.06266Z" fill="white"/>
<path d="M23.4173 5.90265C23.0977 5.90265 22.8345 6.16586 22.8345 6.48549V21.8415C22.8345 22.3868 22.3881 22.8333 21.843 22.8333H12.5804V22.2458C13.1772 22.0437 14.5682 21.63 15.9358 21.63C19.0327 21.63 21.232 22.2552 21.6409 22.3821C21.6456 22.3821 21.655 22.3868 21.6597 22.3868C21.8336 22.4432 22.0309 22.415 22.1813 22.3069C22.3317 22.1988 22.421 22.0249 22.421 21.8368V4.51134C22.421 4.23402 22.233 3.999 21.9651 3.9426H21.9557C21.951 3.9426 21.9416 3.9379 21.9323 3.9379C21.8383 3.9191 21.5516 3.85799 21.1239 3.77809C20.9689 3.74988 20.8138 3.78279 20.6869 3.87209C20.5553 3.9614 20.4754 4.09301 20.4472 4.24812C20.3908 4.56774 20.5976 4.86857 20.9125 4.92497C20.9689 4.93437 21.0253 4.94847 21.0817 4.95787C21.1427 4.96727 21.2038 4.98138 21.2602 4.99078V21.0801C20.2874 20.8404 18.3983 20.4784 15.9358 20.4784C14.2346 20.4784 12.5475 21.0284 12.0211 21.2211C11.3538 20.9391 10.038 20.4784 8.45428 20.4784C5.94478 20.4784 3.83474 20.8592 2.73507 21.1036V4.96727C3.63266 4.75576 5.84139 4.30923 8.45428 4.30923C9.77012 4.30923 10.9262 4.69935 11.4149 4.89677V20.2622C11.4149 20.4737 11.5277 20.6665 11.711 20.7652C11.8896 20.8686 12.1198 20.8639 12.2984 20.7605L12.3078 20.7558C12.9798 20.3609 16.495 18.3257 19.6624 17.2728C19.8974 17.1929 20.0619 16.9673 20.0619 16.7229V0.581845C20.0619 0.389131 19.9679 0.210517 19.8081 0.102409C19.6483 -0.00569875 19.4463 -0.0292005 19.2724 0.0366044C16.636 1.02368 13.9526 2.5795 12.9234 3.20464C12.8999 3.21874 12.8811 3.22814 12.8717 3.23755C12.7402 3.32215 12.6462 3.45376 12.6133 3.59947C12.5804 3.75458 12.6039 3.9097 12.6885 4.0366C12.7731 4.16821 12.8999 4.26222 13.055 4.29512C13.2101 4.32803 13.3652 4.30452 13.4968 4.21992C13.5203 4.20582 16.1238 2.5842 18.9058 1.43261V16.3092C16.3869 17.1929 13.7458 18.6077 12.5898 19.2563V4.51604C12.5898 4.29512 12.4676 4.09771 12.2702 3.9943C11.9789 3.85329 10.4327 3.14824 8.46838 3.14824C4.82632 3.14824 2.02546 3.952 1.99726 3.9567C1.74819 4.0319 1.57901 4.26222 1.57901 4.51604V21.8415C1.57901 22.0202 1.6636 22.1941 1.80928 22.3069C1.95966 22.415 2.14764 22.4526 2.31682 22.4009C2.34502 22.3915 5.02839 21.6394 8.45428 21.6394C9.78892 21.6394 10.9309 22.0343 11.4149 22.227V22.8427H2.15704C1.61191 22.8427 1.16546 22.3962 1.16546 21.8509V6.48079C1.16546 6.16116 0.902291 5.89794 0.58273 5.89794C0.263168 5.89794 0 6.15646 0 6.48079V21.8368C0 23.0307 0.968083 23.999 2.15704 23.999H21.843C23.0319 23.999 24 23.0307 24 21.8415V6.48079C24 6.16116 23.7368 5.90265 23.4173 5.90265Z" fill="white"/>
<path d="M13.4498 9.10731C13.5532 9.30473 13.7506 9.42694 13.9715 9.42694C14.0608 9.42694 14.1547 9.40344 14.2393 9.36113C14.2581 9.35173 16.5562 8.18134 17.6887 7.82412C17.8344 7.77711 17.9566 7.67841 18.0318 7.53739C18.1023 7.40108 18.1211 7.24127 18.0741 7.09086C17.9754 6.78534 17.6511 6.61142 17.3457 6.71013C16.1285 7.09556 13.8117 8.27535 13.713 8.32235C13.572 8.39286 13.4686 8.51037 13.4216 8.66078C13.3652 8.81119 13.3793 8.9663 13.4498 9.10731Z" fill="white"/>
<path d="M18.0692 11.8241C18.0222 11.6784 17.9236 11.5562 17.7826 11.4857C17.6416 11.4152 17.4865 11.3964 17.3408 11.4434C16.1237 11.8288 13.8069 13.0086 13.7082 13.0556C13.5672 13.1214 13.4638 13.2389 13.4168 13.3846C13.3651 13.535 13.3792 13.6949 13.4497 13.8359C13.5531 14.0333 13.7505 14.1555 13.9713 14.1555C14.0606 14.1555 14.1546 14.132 14.2392 14.0897C14.258 14.0803 16.5466 12.9146 17.6886 12.5527C17.8343 12.5057 17.9565 12.407 18.0316 12.2706C18.1021 12.1296 18.1162 11.9698 18.0692 11.8241Z" fill="white"/>
<path d="M4.51614 8.64198C4.57253 8.64198 4.62423 8.63258 4.67122 8.61848C4.69472 8.60908 7.3076 7.92283 9.50223 8.43986C9.8124 8.51037 10.1273 8.31765 10.2024 8.00743C10.24 7.84762 10.2165 7.69251 10.132 7.5609C10.0474 7.42929 9.92048 7.33528 9.7701 7.30238C7.26061 6.71484 4.39395 7.48569 4.36576 7.49039C4.05559 7.575 3.87232 7.89462 3.95691 8.20015C4.0227 8.46337 4.25297 8.64198 4.51614 8.64198Z" fill="white"/>
<path d="M3.95689 10.5691C4.02268 10.8229 4.25295 11.0016 4.51612 11.0016C4.57251 11.0016 4.6242 10.9922 4.6712 10.9781C4.6947 10.9687 7.30758 10.2824 9.50221 10.7994C9.81708 10.8699 10.1272 10.6772 10.2024 10.3717C10.24 10.2166 10.2165 10.0615 10.1366 9.92518C10.052 9.79357 9.92516 9.69956 9.77478 9.66666C7.26998 9.07911 4.39863 9.84997 4.37044 9.85467C4.05557 9.93928 3.8723 10.2589 3.95689 10.5691Z" fill="white"/>
<path d="M17.7828 13.8406C17.6418 13.7701 17.4867 13.7513 17.341 13.7983C16.1474 14.1743 13.9527 15.2883 13.7083 15.4105C13.5674 15.481 13.464 15.5985 13.417 15.7489C13.37 15.8946 13.3794 16.0544 13.4499 16.1907C13.5533 16.3882 13.7506 16.5104 13.9715 16.5104C14.0608 16.5104 14.1548 16.4869 14.2394 16.4446C14.2582 16.4352 16.5468 15.2695 17.6888 14.9075C17.8345 14.8605 17.9566 14.7618 18.0318 14.6208C18.1023 14.4845 18.1211 14.3247 18.0741 14.1743C18.0224 14.0333 17.9237 13.9158 17.7828 13.8406Z" fill="white"/>
<path d="M9.7701 12.0309C7.22301 11.434 4.39395 12.2142 4.36576 12.2189C4.05559 12.3036 3.87232 12.6232 3.95691 12.9287C4.0227 13.1825 4.25297 13.3611 4.51614 13.3611C4.57253 13.3611 4.62423 13.3517 4.67122 13.3376C4.69472 13.3282 7.3076 12.642 9.50223 13.159C9.8124 13.2295 10.1273 13.0368 10.2024 12.7266C10.24 12.5668 10.2165 12.4117 10.132 12.2801C10.0474 12.1578 9.92048 12.0638 9.7701 12.0309Z" fill="white"/>
<path d="M4.52078 18.0897C4.57717 18.0897 4.62886 18.0803 4.67586 18.0662C4.69936 18.0568 7.31224 17.3705 9.50687 17.8876C9.82173 17.9581 10.1319 17.7654 10.2071 17.4551C10.24 17.3 10.2165 17.1449 10.1319 17.018C10.0473 16.8864 9.92042 16.7924 9.77004 16.7595C7.24175 16.1578 4.41739 16.9287 4.3704 16.9428C4.06023 17.0274 3.87696 17.347 3.96155 17.6526C4.02734 17.9111 4.25761 18.0897 4.52078 18.0897Z" fill="white"/>
<path d="M3.95691 15.2977C4.0227 15.5515 4.25297 15.7301 4.51614 15.7301C4.57253 15.7301 4.62423 15.7207 4.67122 15.7066C4.69472 15.6972 7.3076 15.011 9.50223 15.528C9.8124 15.5985 10.1273 15.4058 10.2024 15.0956C10.24 14.9357 10.2165 14.7806 10.132 14.649C10.0474 14.5174 9.92048 14.4234 9.7701 14.3905C7.22301 13.7936 4.39395 14.5738 4.36576 14.5785C4.05559 14.6678 3.87232 14.9875 3.95691 15.2977Z" fill="white"/>
</g>
</svg>
