<svg width="35" height="24" viewBox="0 0 35 24" fill="none" xmlns="http://www.w3.org/2000/svg">
<g opacity="0.7" clip-path="url(#clip0)">
<path d="M34.6855 1.63887C34.4941 1.49823 34.2412 1.46307 34.0156 1.54746L28.0684 3.76955C27.3301 4.04379 26.7422 4.59932 26.4141 5.33064C26.3525 5.47128 26.3115 5.61192 26.2705 5.75255C25.252 5.45721 23.3516 4.83137 21.4648 3.83284C18.6143 2.32097 16.4404 3.06636 14.5742 4.53603C13.6309 4.55713 12.3252 4.66964 11.04 4.78918C10.2197 4.86653 9.44727 4.92982 8.8252 4.97201C8.81152 4.58525 8.72266 4.1985 8.55859 3.83987C8.23047 3.10855 7.64258 2.55302 6.9043 2.27878L0.957031 0.0566873C0.731445 -0.0276959 0.485352 0.00746377 0.287109 0.148102C0.116211 0.274677 0 0.506731 0 0.752849V15.752C0 16.1668 0.328125 16.5044 0.731445 16.5044H2.86426C3.77344 16.5044 4.61426 16.0614 5.1543 15.3582C5.44141 15.5832 5.79004 15.8504 6.14551 16.1317C6.99316 16.7927 7.92969 17.5099 8.33984 17.8615C11.0537 20.2032 14.3213 22.7276 14.9707 23.1636C15.5791 23.5715 16.6729 24.0075 17.5068 24.0075C17.835 24.0075 18.6553 24.0075 19.2295 23.5082C19.8242 23.7473 20.46 23.7332 21.0547 23.466C21.6494 23.1988 22.1279 22.6925 22.4082 22.0737C22.9756 22.1932 23.6318 22.1088 24.2266 21.7994C24.7803 21.5111 25.1904 21.0822 25.4092 20.5759C25.9355 20.6251 26.4961 20.4493 27.002 20.0555C27.7197 19.493 28.0479 18.6562 27.959 17.8334L29.8115 16.7786C30.3516 17.531 31.2129 18.0162 32.1494 18.0162H34.2822C34.6855 18.0162 35.0137 17.6787 35.0137 17.2638V2.25065C35 2.00453 34.8838 1.77951 34.6855 1.63887ZM4.22461 14.0291C4.0127 14.6128 3.46582 14.9995 2.85742 14.9995H1.45605V1.8217L6.42578 3.67813C6.79492 3.81877 7.08887 4.09302 7.25293 4.45868C7.41699 4.82434 7.43066 5.23219 7.29395 5.61192L4.22461 14.0291ZM26.1064 18.853C25.8604 19.0499 25.5117 19.1554 25.3613 19.0007C25.3545 18.9937 25.3408 18.9937 25.334 18.9867C25.3203 18.9726 25.3135 18.9585 25.2998 18.9445C24.7803 18.5225 22.4424 16.0614 21 14.5143C20.7197 14.212 20.2617 14.2049 19.9678 14.4932C19.6738 14.7816 19.667 15.2527 19.9473 15.5551C20.2891 15.9207 23.0029 18.832 24.0967 19.8516C24.0146 20.1821 23.7207 20.386 23.5703 20.4634C23.1055 20.7024 22.6133 20.6673 22.4355 20.4915C22.4287 20.4845 22.4219 20.4845 22.415 20.4845C22.4082 20.4774 22.4014 20.4634 22.3945 20.4563C21.5195 19.7391 19.3252 17.3412 18.833 16.7857C18.5596 16.4833 18.1016 16.4622 17.8008 16.7435C17.5068 17.0247 17.4863 17.4959 17.7598 17.8053C17.7871 17.8334 19.9336 20.2172 21.1436 21.3283C21.0273 21.6799 20.7812 21.9682 20.4736 22.1088C20.248 22.2143 19.8857 22.2706 19.4756 21.9541C18.4297 21.04 16.3242 18.7405 15.9141 18.2835C15.6406 17.9811 15.1758 17.967 14.8818 18.2483C14.5879 18.5296 14.5742 19.0078 14.8477 19.3101C15.3398 19.8516 16.7891 21.4267 17.8896 22.4956C17.7666 22.5097 17.6367 22.5167 17.5137 22.5167C17.0283 22.5167 16.2012 22.2003 15.7842 21.919C15.2715 21.5744 12.0654 19.1062 9.29004 16.7224C8.87305 16.3637 7.91602 15.6184 7.04102 14.9433C6.56934 14.5776 6.13867 14.2471 5.81738 13.994L8.54492 6.50497C9.25586 6.46981 10.1992 6.39246 11.1973 6.30105C11.7646 6.25182 12.332 6.2026 12.8721 6.15337C12.0381 7.03237 10.8076 8.60752 10.9648 10.0772C11.04 10.7452 11.3955 11.3078 11.9971 11.6945C13.1865 12.461 15.3945 11.8211 16.4541 10.471C17.1377 10.3725 17.6025 10.1897 18.1084 9.92952C18.9629 10.7593 20.1113 11.7297 21.3145 12.7493C23.4062 14.5284 25.7852 16.5395 26.4141 17.6647C26.749 18.2764 26.2637 18.7335 26.1064 18.853ZM27.3574 16.4411C26.3867 15.105 24.2812 13.3189 22.2305 11.575C20.8633 10.4147 19.5713 9.31775 18.7441 8.46688C18.5186 8.23483 18.1699 8.17857 17.8828 8.33327C17.1377 8.74113 16.8027 8.90989 15.9688 9.00131C15.7432 9.0224 15.5449 9.14898 15.4219 9.34587C14.8477 10.2811 13.2617 10.7241 12.7559 10.4007C12.4688 10.2178 12.4141 10.028 12.4004 9.88733C12.332 9.24743 12.9609 8.14341 14 7.07456C16.5771 4.42352 18.4229 3.90316 20.8086 5.1689C23.0781 6.37137 25.3135 7.05346 26.25 7.30661C26.2773 7.41912 26.2979 7.53163 26.3389 7.64415L29.1689 15.4144L27.3574 16.4411ZM33.5439 16.5044H32.1426C31.541 16.5044 30.9873 16.1106 30.7754 15.534L27.7061 7.12378C27.5693 6.74406 27.583 6.33621 27.7471 5.97054C27.9111 5.60488 28.2051 5.32361 28.5742 5.19L33.5371 3.33357L33.5439 16.5044Z" fill="white"/>
</g>
<defs>
<clipPath id="clip0">
<rect width="35" height="24" fill="white"/>
</clipPath>
</defs>
</svg>
