<svg width="27" height="24" viewBox="0 0 27 24" fill="none" xmlns="http://www.w3.org/2000/svg">
<g opacity="0.7">
<path d="M13.7705 3.0986C8.35903 3.0986 3.94922 7.44005 3.94922 12.7803C3.94922 18.1206 8.35327 22.462 13.7705 22.462C19.1878 22.462 23.5919 18.1206 23.5919 12.7803C23.5919 7.44005 19.1878 3.0986 13.7705 3.0986ZM14.2023 8.96098C15.3537 8.93828 16.4705 8.80775 17.5125 8.5921C17.8177 9.74414 17.9961 11.021 18.0249 12.3547H14.2023V8.96098ZM14.2023 8.10971V4.00094C15.1292 4.19957 16.0042 5.04516 16.7008 6.42988C16.9138 6.84417 17.098 7.29817 17.265 7.77488C16.3036 7.96784 15.2731 8.08134 14.2023 8.10971ZM13.3388 4.00094V8.10971C12.2737 8.08701 11.2375 7.97351 10.2761 7.77488C10.4373 7.29817 10.6273 6.84417 10.8403 6.42988C11.5426 5.04516 12.4177 4.19957 13.3388 4.00094ZM13.3388 8.96098V12.3547H9.51617C9.54495 11.021 9.72342 9.74414 10.0285 8.5921C11.0705 8.80775 12.1931 8.9326 13.3388 8.96098ZM8.65263 12.3547H4.83003C4.92214 10.5046 5.58994 8.80208 6.66649 7.42303C7.40338 7.82028 8.26116 8.14376 9.19378 8.39347C8.87139 9.60794 8.68141 10.9586 8.65263 12.3547ZM8.65263 13.206C8.68141 14.602 8.87139 15.947 9.19378 17.1672C8.26116 17.4169 7.40338 17.746 6.66649 18.1376C5.58994 16.7586 4.92214 15.056 4.83003 13.206H8.65263ZM9.51617 13.206H13.3388V16.5997C12.1874 16.6224 11.0705 16.7529 10.0285 16.9685C9.72342 15.8165 9.54495 14.5396 9.51617 13.206ZM13.3388 17.4509V21.5597C12.4119 21.3611 11.5369 20.5155 10.8403 19.1308C10.6273 18.7165 10.443 18.2625 10.2761 17.7858C11.2375 17.5928 12.2737 17.4736 13.3388 17.4509ZM14.2023 21.5597V17.4509C15.2673 17.4736 16.3036 17.5871 17.265 17.7858C17.1038 18.2625 16.9138 18.7165 16.7008 19.1308C16.0042 20.5155 15.1292 21.3611 14.2023 21.5597ZM14.2023 16.5997V13.206H18.0249C17.9961 14.5396 17.8177 15.8165 17.5125 16.9685C16.4705 16.7529 15.3537 16.628 14.2023 16.5997ZM18.8942 13.206H22.7168C22.6247 15.056 21.9569 16.7586 20.8803 18.1376C20.1435 17.7404 19.2857 17.4169 18.3531 17.1672C18.6754 15.947 18.8597 14.602 18.8942 13.206ZM18.8942 12.3547C18.8654 10.9586 18.6754 9.61362 18.3531 8.39347C19.2857 8.14376 20.1435 7.81461 20.8803 7.42303C21.9569 8.80208 22.6247 10.5046 22.7168 12.3547H18.8942ZM20.3104 6.75336C19.6599 7.08252 18.9172 7.3606 18.1113 7.57625C17.927 7.03144 17.7198 6.52068 17.478 6.04398C17.1211 5.34594 16.7181 4.7614 16.2806 4.30172C17.8407 4.75573 19.2281 5.61267 20.3104 6.75336ZM11.2663 4.3074C10.8287 4.76708 10.4258 5.35161 10.0688 6.04965C9.82704 6.52068 9.61979 7.03712 9.43557 7.58193C8.62385 7.36628 7.8812 7.09387 7.23643 6.75904C8.31873 5.61267 9.70039 4.75573 11.2663 4.3074ZM7.23643 18.8016C7.88696 18.4724 8.6296 18.1944 9.43557 17.9787C9.61979 18.5235 9.82704 19.0343 10.0688 19.511C10.4258 20.209 10.8287 20.7936 11.2663 21.2532C9.70039 20.8049 8.31873 19.948 7.23643 18.8016ZM16.2806 21.2532C16.7181 20.7936 17.1211 20.209 17.478 19.511C17.7198 19.04 17.927 18.5235 18.1113 17.9787C18.923 18.1944 19.6656 18.4668 20.3104 18.8016C19.2281 19.948 17.8407 20.8049 16.2806 21.2532Z" fill="white"/>
<path d="M1.48529 8.29132C1.89403 8.29132 2.26823 8.4559 2.53305 8.72263C2.80362 8.98936 2.97058 9.35256 2.97058 9.7555C2.97058 10.1584 2.80362 10.5273 2.53305 10.7884C2.26247 11.0551 1.88827 11.2197 1.47953 11.2197C1.07079 11.2197 0.696588 11.0551 0.43177 10.7884C0.166951 10.5216 0 10.1584 0 9.7555C0 9.35256 0.166951 8.98368 0.437527 8.72263C0.702345 8.4559 1.07655 8.29132 1.48529 8.29132Z" fill="white"/>
<path d="M7.30544 23.1033C5.57836 22.0194 4.14489 20.5098 3.1547 18.7392C2.17602 16.9856 1.66365 14.9879 1.66365 12.9733C1.66365 12.7066 1.44489 12.4852 1.16856 12.4852C0.897982 12.4852 0.673462 12.7009 0.673462 12.9733C0.673462 15.1525 1.23188 17.3091 2.29116 19.2102C3.35619 21.1227 4.9048 22.7515 6.7758 23.9206C6.8564 23.9716 6.94851 23.9943 7.04062 23.9943C7.20182 23.9943 7.36301 23.9149 7.45512 23.773C7.59904 23.546 7.52996 23.2509 7.30544 23.1033Z" fill="white"/>
<path d="M23.1428 3.79664C20.6558 1.35067 17.3513 0 13.8338 0C13.5633 0 13.3387 0.215654 13.3387 0.488058C13.3387 0.760463 13.5575 0.976117 13.8338 0.976117C17.0865 0.976117 20.1434 2.22464 22.4462 4.489C24.7432 6.75337 26.0097 9.77252 26.0097 12.9733C26.0097 13.24 26.2285 13.4613 26.5048 13.4613C26.7754 13.4613 26.9999 13.2457 26.9999 12.9733C26.9999 9.50579 25.6298 6.24828 23.1428 3.79664Z" fill="white"/>
<path d="M9.22825 0.618589C7.74872 1.15205 6.39008 1.93521 5.19264 2.94538C3.98944 3.94988 2.98774 5.14732 2.21055 6.50367C2.07814 6.73635 2.15874 7.03146 2.39477 7.16766C2.46961 7.20739 2.55597 7.23009 2.63656 7.23009C2.80927 7.23009 2.97622 7.14496 3.06258 6.98606C3.78219 5.73186 4.71481 4.61954 5.8259 3.68882C6.93699 2.7581 8.19776 2.03169 9.5679 1.53228C9.82121 1.44148 9.95362 1.1634 9.86151 0.908019C9.7694 0.658314 9.48155 0.527787 9.22825 0.618589Z" fill="white"/>
<path d="M26.4876 15.6122C26.3149 15.4419 26.0731 15.3341 25.8083 15.3341C25.5435 15.3341 25.3017 15.4419 25.129 15.6122C24.9563 15.7825 24.8469 16.0208 24.8469 16.2819C24.8469 16.5429 24.9563 16.7813 25.129 16.9515C25.3017 17.1218 25.5435 17.2296 25.8083 17.2296C26.0731 17.2296 26.3149 17.1218 26.4876 16.9515C26.6604 16.7813 26.7697 16.5429 26.7697 16.2819C26.7697 16.0265 26.6661 15.7938 26.4992 15.6236L26.4876 15.6122Z" fill="white"/>
</g>
</svg>
