<svg width="27" height="24" viewBox="0 0 27 24" fill="none" xmlns="http://www.w3.org/2000/svg">
<g opacity="0.7" clip-path="url(#clip0)">
<path d="M26.994 13.6273C26.9321 12.6873 26.3565 11.8545 25.5208 11.457C25.8303 10.9901 25.9851 10.4223 25.9541 9.85446C25.8737 8.48538 24.7409 7.41282 23.373 7.41282H17.7959C17.6907 7.41282 17.5917 7.36235 17.5298 7.27402C17.4679 7.18569 17.4493 7.08475 17.4803 6.9838L18.2726 4.78191C18.3407 4.59263 18.3964 4.39705 18.4273 4.20147C18.6378 3.04689 18.254 1.81661 17.4184 0.99011C17.0036 0.580016 16.4837 0.277176 15.9328 0.119448C14.9858 -0.145536 14.2306 0.0626655 13.9149 0.680962L12.6027 3.24248C12.5222 3.4002 12.5036 3.58948 12.5594 3.75983C12.6151 3.93017 12.7265 4.07528 12.8874 4.1573C13.2155 4.33396 13.6178 4.20147 13.7849 3.87339L15.0662 1.37497C15.1467 1.36235 15.3386 1.36235 15.58 1.43175C15.9204 1.52639 16.2361 1.71566 16.4961 1.96803C17.016 2.47907 17.2574 3.24248 17.1213 3.95541C17.0965 4.07528 17.0655 4.20147 17.0222 4.31503L16.2237 6.53585L16.2175 6.56109C16.0504 7.08475 16.1371 7.63995 16.4528 8.08159C16.7684 8.52323 17.2574 8.78191 17.7959 8.78191H23.373C24.0353 8.78191 24.5862 9.29295 24.6233 9.94279C24.6543 10.5359 24.2581 11.0784 23.6887 11.2172H18.4768C18.1116 11.2172 17.8083 11.5201 17.8083 11.8986C17.8083 12.2709 18.1054 12.58 18.4768 12.58H24.4191C25.0752 12.58 25.6199 13.0847 25.6632 13.7283C25.688 14.0753 25.5704 14.4034 25.3413 14.6557C25.1123 14.9081 24.7904 15.0532 24.4562 15.0532H24.2581C24.2086 15.0406 24.1591 15.0343 24.1096 15.0343H18.483C18.1178 15.0343 17.8145 15.3371 17.8145 15.7157C17.8145 16.0942 18.1116 16.397 18.483 16.397H23.9548C23.961 16.397 23.9734 16.4034 23.9796 16.4034C24.58 16.5169 25.0009 17.0721 24.9638 17.6904C24.9266 18.3403 24.3757 18.8513 23.7134 18.8513H22.6054C22.5807 18.8513 22.5621 18.8513 22.5373 18.8576H18.4706C18.1054 18.8576 17.8021 19.1605 17.8021 19.539C17.8021 19.9112 18.0992 20.2204 18.4706 20.2204H22.5497C23.1068 20.3655 23.503 20.9018 23.4658 21.4948C23.4287 22.1447 22.8778 22.6557 22.2155 22.6557H14.6082C12.4789 22.6557 10.3372 22.1699 8.41218 21.2551L8.35028 21.2235V9.78506L9.37779 9.2614C11.179 8.34658 12.1446 6.92071 12.9184 5.52008C13.0979 5.192 12.9865 4.7756 12.6646 4.59263C12.3427 4.40967 11.9342 4.52323 11.7547 4.85131C11.0862 6.06266 10.2629 7.29295 8.78357 8.04374L8.28219 8.2961C8.10888 7.77875 7.62607 7.40651 7.0566 7.40651H1.29388C0.582052 7.41282 0.000208376 7.99957 0.000208376 8.73143V18.6494C0.000208376 19.0217 0.29732 19.3308 0.668709 19.3308C1.03391 19.3308 1.33721 19.028 1.33721 18.6494V8.76929H7.01947V22.6368H1.33102V20.4917C1.33102 20.1194 1.03391 19.8103 0.662519 19.8103C0.29732 19.8103 -0.00598145 20.1131 -0.00598145 20.4917V22.681C-0.00598145 23.4065 0.575862 23.9996 1.28769 23.9996H7.0566C7.76224 23.9996 8.3379 23.4191 8.35028 22.6999C10.3186 23.5516 12.4789 23.9996 14.6144 23.9996H22.234C23.602 23.9996 24.7347 22.927 24.8152 21.5579C24.8462 21.0406 24.7224 20.5359 24.4686 20.0942C25.4961 19.7914 26.2451 18.8639 26.307 17.7598C26.3441 17.1352 26.1522 16.5169 25.7808 16.0248C25.9789 15.8986 26.1646 15.7472 26.3193 15.5769C26.8021 15.0406 27.0435 14.3529 26.994 13.6273Z" fill="white"/>
</g>
<defs>
<clipPath id="clip0">
<rect width="27" height="24" fill="white"/>
</clipPath>
</defs>
</svg>
