<?xml version="1.0" encoding="utf-8"?>
<svg version="1.1" xmlns:xlink="http://www.w3.org/1999/xlink" width="20px" height="24px" xmlns="http://www.w3.org/2000/svg">
  <g transform="matrix(1 0 0 1 -454 -3590 )">
    <path d="M 15.0520833333333 0.910714285714286  L 19.1145833333333 5.08928571428571  C 19.3576388888889 5.33928571428571  19.5659722222222 5.67857142857143  19.7395833333333 6.10714285714286  C 19.9131944444444 6.53571428571429  20 6.92857142857143  20 7.28571428571429  L 20 22.7142857142857  C 20 23.0714285714286  19.8784722222222 23.375  19.6354166666667 23.625  C 19.3923611111111 23.875  19.0972222222222 24  18.75 24  L 1.25 24  C 0.902777777777778 24  0.607638888888889 23.875  0.364583333333333 23.625  C 0.121527777777778 23.375  0 23.0714285714286  0 22.7142857142857  L 0 1.28571428571429  C 0 0.928571428571428  0.121527777777778 0.624999999999999  0.364583333333333 0.375  C 0.607638888888889 0.125000000000001  0.902777777777778 0  1.25 0  L 12.9166666666667 0  C 13.2638888888889 0  13.6458333333333 0.0892857142857153  14.0625 0.267857142857143  C 14.4791666666667 0.446428571428571  14.8090277777778 0.660714285714285  15.0520833333333 0.910714285714286  Z M 13.8671875 2.11607142857143  C 13.7630208333333 2.00892857142857  13.5850694444444 1.91071428571428  13.3333333333333 1.82142857142857  L 13.3333333333333 6.85714285714286  L 18.2291666666667 6.85714285714286  C 18.1423611111111 6.59821428571428  18.046875 6.41517857142857  17.9427083333333 6.30803571428571  L 13.8671875 2.11607142857143  Z M 2 22  L 18 22  L 18 8.57142857142857  L 12.9166666666667 8.57142857142857  C 12.5694444444444 8.57142857142857  12.2743055555556 8.44642857142857  12.03125 8.19642857142857  C 11.7881944444444 7.94642857142857  11.6666666666667 7.64285714285714  11.6666666666667 7.28571428571429  L 11.6666666666667 2  L 2 2  L 2 22  Z M 9.73958333333333 11.15625  C 10.2170138888889 12.6205357142857  10.8506944444444 13.6830357142857  11.640625 14.34375  C 11.9270833333333 14.5758928571429  12.2916666666667 14.8258928571429  12.734375 15.09375  C 13.2465277777778 15.03125  13.7543402777778 15  14.2578125 15  C 15.5338541666667 15  16.3020833333333 15.21875  16.5625 15.65625  C 16.7013888888889 15.8526785714286  16.7100694444444 16.0848214285714  16.5885416666667 16.3526785714286  C 16.5885416666667 16.3616071428571  16.5842013888889 16.3705357142857  16.5755208333333 16.3794642857143  L 16.5494791666667 16.40625  L 16.5494791666667 16.4196428571429  C 16.4973958333333 16.7589285714286  16.1892361111111 16.9285714285714  15.625 16.9285714285714  C 15.2083333333333 16.9285714285714  14.7092013888889 16.8392857142857  14.1276041666667 16.6607142857143  C 13.5460069444444 16.4821428571429  12.9817708333333 16.2455357142857  12.4348958333333 15.9508928571429  C 10.5164930555556 16.1651785714286  8.81510416666667 16.5357142857143  7.33072916666667 17.0625  C 6.00260416666667 19.4017857142857  4.95225694444444 20.5714285714286  4.1796875 20.5714285714286  C 4.04947916666667 20.5714285714286  3.92795138888889 20.5401785714286  3.81510416666667 20.4776785714286  L 3.50260416666667 20.3169642857143  C 3.49392361111111 20.3080357142857  3.46788194444444 20.2857142857143  3.42447916666667 20.25  C 3.33767361111111 20.1607142857143  3.31163194444444 20  3.34635416666667 19.7678571428571  C 3.42447916666667 19.4107142857143  3.66753472222222 19.0022321428571  4.07552083333333 18.5424107142857  C 4.48350694444444 18.0825892857143  5.05642361111111 17.6517857142857  5.79427083333333 17.25  C 5.91579861111111 17.1696428571429  6.015625 17.1964285714286  6.09375 17.3303571428571  C 6.11111111111111 17.3482142857143  6.11979166666667 17.3660714285714  6.11979166666667 17.3839285714286  C 6.57118055555556 16.625  7.03559027777778 15.7455357142857  7.51302083333333 14.7455357142857  C 8.10329861111111 13.53125  8.5546875 12.3616071428571  8.8671875 11.2366071428571  C 8.65885416666667 10.5044642857143  8.52647569444444 9.79241071428571  8.47005208333333 9.10044642857143  C 8.41362847222222 8.40848214285714  8.44184027777778 7.83928571428571  8.5546875 7.39285714285714  C 8.65017361111111 7.03571428571428  8.83246527777778 6.85714285714286  9.1015625 6.85714285714286  L 9.375 6.85714285714286  L 9.38802083333333 6.85714285714286  C 9.58767361111111 6.85714285714286  9.73958333333333 6.92410714285714  9.84375 7.05803571428571  C 10 7.24553571428571  10.0390625 7.54910714285714  9.9609375 7.96875  C 9.94357638888889 8.02232142857143  9.92621527777778 8.05803571428571  9.90885416666667 8.07589285714286  C 9.91753472222222 8.10267857142857  9.921875 8.13839285714286  9.921875 8.18303571428571  L 9.921875 8.58482142857143  C 9.90451388888889 9.68303571428571  9.84375 10.5401785714286  9.73958333333333 11.15625  Z M 4.78515625 18.8571428571429  C 4.46831597222222 19.25  4.25347222222222 19.5803571428571  4.140625 19.8482142857143  C 4.59201388888889 19.6339285714286  5.18663194444445 18.9285714285714  5.92447916666667 17.7321428571429  C 5.48177083333333 18.0892857142857  5.10199652777778 18.4642857142857  4.78515625 18.8571428571429  Z M 9.32291666666667 7.5  L 9.32291666666667 7.52678571428571  C 9.19270833333333 7.90178571428571  9.18402777777778 8.49107142857143  9.296875 9.29464285714286  C 9.30555555555556 9.23214285714285  9.3359375 9.03571428571428  9.38802083333333 8.70535714285714  C 9.38802083333333 8.67857142857143  9.41840277777778 8.48660714285714  9.47916666666667 8.12946428571429  C 9.48784722222222 8.09375  9.50520833333333 8.05803571428571  9.53125 8.02232142857143  C 9.52256944444444 8.01339285714285  9.51822916666667 8.00446428571428  9.51822916666667 7.99553571428571  C 9.50954861111111 7.97767857142857  9.50520833333333 7.96428571428571  9.50520833333333 7.95535714285714  C 9.49652777777778 7.75892857142857  9.44010416666667 7.59821428571428  9.3359375 7.47321428571429  C 9.3359375 7.48214285714286  9.33159722222222 7.49107142857143  9.32291666666667 7.5  Z M 8.29427083333333 15.2678571428571  C 8.03385416666667 15.7678571428571  7.83854166666667 16.1383928571429  7.70833333333333 16.3794642857143  C 8.88020833333333 15.8973214285714  10.1128472222222 15.5357142857143  11.40625 15.2946428571429  C 11.3888888888889 15.2857142857143  11.3324652777778 15.2433035714286  11.2369791666667 15.1674107142857  C 11.1414930555556 15.0915178571429  11.0720486111111 15.03125  11.0286458333333 14.9866071428571  C 10.3689236111111 14.3883928571429  9.81770833333334 13.6026785714286  9.375 12.6294642857143  C 9.140625 13.3973214285714  8.78038194444444 14.2767857142857  8.29427083333333 15.2678571428571  Z M 16.1458333333333 16.2053571428571  C 16.1458333333333 16.1964285714286  16.1371527777778 16.1830357142857  16.1197916666667 16.1651785714286  C 15.9114583333333 15.9508928571429  15.3038194444444 15.84375  14.296875 15.84375  C 14.9565972222222 16.09375  15.4947916666667 16.21875  15.9114583333333 16.21875  C 16.0329861111111 16.21875  16.1111111111111 16.2142857142857  16.1458333333333 16.2053571428571  Z " fill-rule="nonzero" fill="#a30014" stroke="none" transform="matrix(1 0 0 1 454 3590 )" />
  </g>
</svg>