<svg width="35" height="30" viewBox="0 0 35 30" fill="none" xmlns="http://www.w3.org/2000/svg">
<path fill-rule="evenodd" clip-rule="evenodd" d="M4 2H31C32.1046 2 33 2.89543 33 4V26C33 27.1046 32.1046 28 31 28H4C2.89543 28 2 27.1046 2 26V4C2 2.89543 2.89543 2 4 2ZM0 4C0 1.79086 1.79086 0 4 0H31C33.2091 0 35 1.79086 35 4V26C35 28.2091 33.2091 30 31 30H4C1.79086 30 0 28.2091 0 26V4ZM22.8989 14.734C22.8989 15.0001 22.757 15.2459 22.5266 15.3789L15.2659 19.5709C15.0355 19.7039 14.7517 19.7039 14.5213 19.5709C14.2909 19.4379 14.1489 19.192 14.1489 18.926V10.5421C14.1489 10.2761 14.2909 10.0302 14.5213 9.89719C14.7517 9.76417 15.0355 9.76417 15.2659 9.89719L22.5266 14.0891C22.757 14.2221 22.8989 14.468 22.8989 14.734Z" fill="#DCDCDC"/>
</svg>
