<?xml version="1.0" encoding="utf-8"?>
<svg version="1.1" xmlns:xlink="http://www.w3.org/1999/xlink" width="24px" height="20px" xmlns="http://www.w3.org/2000/svg">
  <g transform="matrix(1 0 0 1 -183 -2585 )">
    <path d="M 10.2692307692308 9.88636363636363  C 10.8076923076923 10.4166666666667  11.0769230769231 11.0606060606061  11.0769230769231 11.8181818181818  L 11.0769230769231 17.2727272727273  C 11.0769230769231 18.030303030303  10.8076923076923 18.6742424242424  10.2692307692308 19.2045454545455  C 9.73076923076923 19.7348484848485  9.07692307692308 20  8.30769230769231 20  L 2.76923076923077 20  C 2 20  1.34615384615385 19.7348484848485  0.807692307692308 19.2045454545455  C 0.269230769230769 18.6742424242424  0 18.030303030303  0 17.2727272727273  L 0 7.27272727272727  C 0 6.28787878787879  0.194711538461538 5.34801136363637  0.584134615384615 4.453125  C 0.973557692307692 3.55823863636364  1.5 2.78409090909091  2.16346153846154 2.13068181818182  C 2.82692307692308 1.47727272727273  3.61298076923077 0.958806818181819  4.52163461538462 0.575284090909092  C 5.43028846153846 0.191761363636365  6.38461538461539 0  7.38461538461539 0  L 8.30769230769231 0  C 8.55769230769231 0  8.77403846153846 0.0899621212121193  8.95673076923077 0.269886363636365  C 9.13942307692308 0.449810606060603  9.23076923076923 0.662878787878787  9.23076923076923 0.909090909090908  L 9.23076923076923 2.72727272727273  C 9.23076923076923 2.97348484848485  9.13942307692308 3.18655303030303  8.95673076923077 3.36647727272727  C 8.77403846153846 3.54640151515151  8.55769230769231 3.63636363636364  8.30769230769231 3.63636363636364  L 7.38461538461539 3.63636363636364  C 6.36538461538462 3.63636363636364  5.49519230769231 3.99147727272727  4.77403846153846 4.70170454545455  C 4.05288461538462 5.41193181818182  3.69230769230769 6.26893939393939  3.69230769230769 7.27272727272727  L 3.69230769230769 7.72727272727273  C 3.69230769230769 8.10606060606061  3.82692307692308 8.4280303030303  4.09615384615385 8.69318181818182  C 4.36538461538462 8.95833333333334  4.69230769230769 9.09090909090909  5.07692307692308 9.09090909090909  L 8.30769230769231 9.09090909090909  C 9.07692307692308 9.09090909090909  9.73076923076923 9.35606060606061  10.2692307692308 9.88636363636363  Z M 23.1923076923077 9.88636363636363  C 23.7307692307692 10.4166666666667  24 11.0606060606061  24 11.8181818181818  L 24 17.2727272727273  C 24 18.030303030303  23.7307692307692 18.6742424242424  23.1923076923077 19.2045454545455  C 22.6538461538462 19.7348484848485  22 20  21.2307692307692 20  L 15.6923076923077 20  C 14.9230769230769 20  14.2692307692308 19.7348484848485  13.7307692307692 19.2045454545455  C 13.1923076923077 18.6742424242424  12.9230769230769 18.030303030303  13 17.2727272727273  L 13 7.27272727272727  C 12.9230769230769 6.28787878787879  13.1177884615385 5.34801136363637  13.5072115384615 4.453125  C 13.8966346153846 3.55823863636364  14.4230769230769 2.78409090909091  15.0865384615385 2.13068181818182  C 15.75 1.47727272727273  16.5360576923077 0.958806818181819  17.4447115384615 0.575284090909092  C 18.3533653846154 0.191761363636365  19.3076923076923 0  20.3076923076923 0  L 21.2307692307692 0  C 21.4807692307692 0  21.6971153846154 0.0899621212121193  21.8798076923077 0.269886363636365  C 22.0625 0.449810606060603  22.1538461538462 0.662878787878787  22.1538461538462 0.909090909090908  L 22.1538461538462 2.72727272727273  C 22.1538461538462 2.97348484848485  22.0625 3.18655303030303  21.8798076923077 3.36647727272727  C 21.6971153846154 3.54640151515151  21.4807692307692 3.63636363636364  21.2307692307692 3.63636363636364  L 20.3076923076923 3.63636363636364  C 19.2884615384615 3.63636363636364  18.4182692307692 3.99147727272727  17.6971153846154 4.70170454545455  C 16.9759615384615 5.41193181818182  16.6153846153846 6.26893939393939  16.6153846153846 7.27272727272727  L 16.6153846153846 7.72727272727273  C 16.6153846153846 8.10606060606061  16.75 8.4280303030303  17.0192307692308 8.69318181818182  C 17.2884615384615 8.95833333333334  17.6153846153846 9.09090909090909  18 9.09090909090909  L 21.2307692307692 9.09090909090909  C 22 9.09090909090909  22.6538461538462 9.35606060606061  23.1923076923077 9.88636363636363  Z " fill-rule="nonzero" fill="#3e4d6d" stroke="none" transform="matrix(1 0 0 1 183 2585 )" />
  </g>
</svg>